<?xml version="1.0" encoding="utf-8"?>
<!-- Generator: Adobe Illustrator 26.3.1, SVG Export Plug-In . SVG Version: 6.00 Build 0)  -->
<svg version="1.1" id="Layer_1" xmlns="http://www.w3.org/2000/svg" xmlns:xlink="http://www.w3.org/1999/xlink" x="0px" y="0px"
	 viewBox="0 0 379 108" style="enable-background:new 0 0 379 108;" xml:space="preserve">
<g>
	<path d="M50.75,61.03c0.32-0.09,0.63-0.09,0.91,0c0.28,0.09,0.46,0.22,0.56,0.38c0.09,0.16,0.06,0.35-0.1,0.56
		c-0.16,0.21-0.52,0.38-1.08,0.52c-1.86,0.28-3.87,0.78-6.03,1.5c-2.16,0.72-4.37,1.52-6.62,2.4c-2.25,0.88-4.51,1.79-6.76,2.72
		c-2.25,0.93-4.46,1.75-6.62,2.47s-4.21,1.27-6.13,1.64c-1.93,0.37-3.66,0.44-5.19,0.21c-1.49-0.19-2.61-0.74-3.38-1.67
		s-1.03-2.14-0.8-3.62c0.19-1.49,0.84-3.01,1.95-4.57c1.12-1.56,2.49-3.09,4.11-4.6c1.63-1.51,3.42-2.98,5.37-4.43
		c1.95-1.44,3.89-2.78,5.82-4.01c1.93-1.23,3.76-2.35,5.51-3.35c1.74-1,3.19-1.82,4.36-2.47c-0.79-0.09-1.75-0.2-2.89-0.31
		c-1.14-0.12-2.33-0.27-3.59-0.45c-1.25-0.19-2.5-0.45-3.73-0.8c-1.23-0.35-2.31-0.81-3.24-1.39c-0.93-0.58-1.66-1.29-2.2-2.13
		c-0.54-0.84-0.71-1.88-0.52-3.14c0.19-1.35,0.8-2.64,1.85-3.87c1.05-1.23,2.37-2.37,3.97-3.42c1.6-1.05,3.43-2.01,5.47-2.89
		c2.04-0.88,4.12-1.65,6.24-2.3c2.11-0.65,4.21-1.17,6.27-1.57c2.07-0.39,3.96-0.66,5.68-0.8c0.98-0.09,2.09-0.09,3.35,0
		c1.25,0.09,2.44,0.37,3.55,0.84c1.12,0.46,2.02,1.13,2.72,1.99c0.7,0.86,0.95,2.01,0.77,3.45c-0.14,0.84-0.43,1.67-0.87,2.51
		c-0.44,0.84-0.98,1.63-1.6,2.37c-0.63,0.74-1.31,1.43-2.06,2.06c-0.74,0.63-1.46,1.17-2.16,1.64c-0.42,0.28-0.74,0.41-0.98,0.38
		c-0.23-0.02-0.38-0.12-0.45-0.28c-0.07-0.16-0.05-0.37,0.07-0.63c0.12-0.25,0.31-0.45,0.59-0.59c0.7-0.51,1.41-1.1,2.13-1.78
		c0.72-0.67,1.34-1.36,1.85-2.06c1.21-1.44,1.85-2.71,1.92-3.8c0.07-1.09-0.26-1.99-0.98-2.68c-0.72-0.7-1.75-1.19-3.1-1.46
		c-1.35-0.28-2.83-0.37-4.46-0.28c-1.67,0.14-3.51,0.38-5.51,0.73c-2,0.35-4.01,0.81-6.03,1.39c-2.02,0.58-4,1.27-5.92,2.06
		c-1.93,0.79-3.67,1.65-5.23,2.58c-1.56,0.93-2.83,1.95-3.83,3.07c-1,1.12-1.57,2.28-1.71,3.48c-0.19,1.44,0.27,2.57,1.36,3.38
		c1.09,0.81,2.42,1.42,3.97,1.81c1.56,0.4,3.16,0.65,4.81,0.77c1.65,0.12,2.94,0.22,3.87,0.31c0.42,0.05,0.82,0.08,1.22,0.1
		c0.39,0.02,0.75,0.08,1.08,0.17c0.65,0.14,1.05,0.42,1.19,0.84c0.14,0.42-0.12,0.81-0.77,1.18c-0.14,0.09-0.3,0.19-0.49,0.28
		c-0.19,0.09-0.4,0.21-0.63,0.35c-0.93,0.56-2.08,1.23-3.45,2.02c-1.37,0.79-2.87,1.68-4.5,2.68c-1.63,1-3.31,2.08-5.05,3.24
		c-1.74,1.16-3.4,2.38-4.98,3.66c-1.58,1.28-3.02,2.59-4.32,3.94c-1.3,1.35-2.32,2.72-3.07,4.11c-0.51,0.93-0.86,1.78-1.05,2.54
		c-0.19,0.77-0.17,1.44,0.04,2.02c0.21,0.58,0.67,1.03,1.39,1.36c0.72,0.33,1.75,0.49,3.1,0.49c2.37-0.09,5.04-0.63,8.02-1.6
		c2.97-0.98,6.03-2.07,9.17-3.28c3.14-1.21,6.25-2.38,9.34-3.52C45.3,62.37,48.15,61.55,50.75,61.03z"/>
	<path d="M75.5,50.93c0.19-0.09,0.35-0.09,0.49,0c0.14,0.09,0.22,0.23,0.24,0.42c0.02,0.19,0.01,0.38-0.03,0.59
		c-0.05,0.21-0.14,0.38-0.28,0.52c-0.51,0.37-1.09,0.72-1.74,1.05c-0.65,0.33-1.34,0.62-2.06,0.87c-0.72,0.26-1.42,0.44-2.09,0.56
		c-0.67,0.12-1.29,0.15-1.85,0.1c-0.88-0.09-1.58-0.42-2.09-0.98c-0.42,0.6-1.02,1.39-1.81,2.37c-0.79,0.98-1.65,1.92-2.58,2.82
		c-0.93,0.91-1.87,1.67-2.82,2.3c-0.95,0.63-1.82,0.9-2.61,0.8c-0.7-0.05-1.17-0.3-1.43-0.77c-0.25-0.46-0.39-1-0.42-1.6
		c-0.02-0.6,0.03-1.22,0.17-1.85c0.14-0.63,0.28-1.17,0.42-1.64c0.28-1.12,0.63-2.37,1.05-3.76c0.42-1.39,0.88-2.76,1.39-4.11
		c0.32-0.6,0.71-0.85,1.15-0.73c0.44,0.12,0.57,0.48,0.38,1.08c-0.51,1.3-0.99,2.63-1.43,3.97c-0.44,1.35-0.82,2.7-1.15,4.04
		c-0.19,0.7-0.3,1.36-0.35,1.99c-0.05,0.63,0.01,1.1,0.17,1.43c0.16,0.33,0.48,0.44,0.94,0.35c0.46-0.09,1.14-0.53,2.02-1.32
		c1.21-0.93,2.27-2,3.17-3.21c0.91-1.21,1.87-2.42,2.89-3.62c-0.28-0.88-0.24-1.95,0.1-3.21c0.35-1.25,0.87-2.55,1.57-3.9
		c0.7-1.35,1.51-2.66,2.44-3.94c0.93-1.28,1.81-2.4,2.65-3.38c0.65-0.74,1.29-1.29,1.92-1.64s1.15-0.48,1.57-0.38
		c0.42,0.09,0.66,0.4,0.73,0.91c0.07,0.51-0.13,1.25-0.59,2.23c-0.37,0.98-0.94,2.11-1.71,3.42c-0.77,1.3-1.59,2.61-2.47,3.94
		c-0.88,1.32-1.73,2.56-2.54,3.69c-0.81,1.14-1.45,1.99-1.92,2.54c0.19,0.28,0.48,0.45,0.87,0.52c0.39,0.07,0.81,0.08,1.25,0.04
		c0.44-0.05,0.88-0.14,1.32-0.28c0.44-0.14,0.82-0.25,1.15-0.35c0.79-0.23,1.54-0.51,2.27-0.84C74.58,51.65,75.12,51.3,75.5,50.93z
		 M66.78,50.58C67.9,49,69,47.42,70.09,45.84c1.09-1.58,2.1-3.21,3.03-4.88c0.93-1.63,1.3-2.5,1.12-2.61
		c-0.19-0.12-0.91,0.57-2.16,2.06c-0.65,0.74-1.28,1.55-1.88,2.4c-0.6,0.86-1.15,1.73-1.64,2.61c-0.49,0.88-0.9,1.77-1.22,2.65
		C67.01,48.95,66.83,49.79,66.78,50.58z"/>
	<path d="M79.33,58.53c-0.93,0-1.74-0.15-2.44-0.45c-0.7-0.3-1.23-0.75-1.6-1.36c-0.37-0.6-0.57-1.32-0.59-2.16
		c-0.02-0.84,0.2-1.79,0.66-2.86c-0.23-0.23-0.28-0.55-0.14-0.94c0.14-0.39,0.37-0.69,0.7-0.87l0.42-0.14
		c0.88-1.49,2.01-2.83,3.38-4.04c1.37-1.21,2.89-2.09,4.57-2.65c0.56-0.19,1.09-0.25,1.6-0.21c0.51,0.05,0.91,0.2,1.18,0.45
		c0.28,0.26,0.42,0.59,0.42,1.01c0,0.42-0.21,0.91-0.63,1.46c-0.51,0.7-1.17,1.35-1.99,1.95c-0.81,0.6-1.7,1.16-2.65,1.67
		c-0.95,0.51-1.88,0.95-2.79,1.32c-0.91,0.37-1.71,0.65-2.4,0.84c-0.28,0.7-0.5,1.37-0.66,2.02c-0.16,0.65-0.17,1.23-0.03,1.74
		c0.14,0.51,0.46,0.92,0.98,1.22c0.51,0.3,1.25,0.45,2.23,0.45c1.44,0,2.89-0.28,4.36-0.84c1.46-0.56,2.82-1.2,4.08-1.92
		c1.25-0.72,2.35-1.42,3.28-2.09c0.93-0.67,1.53-1.13,1.81-1.36C93.52,50.6,93.84,50.67,94,51c0.16,0.33,0.06,0.67-0.31,1.05
		c-1.16,0.84-2.28,1.64-3.35,2.4c-1.07,0.77-2.16,1.45-3.28,2.06c-1.12,0.6-2.3,1.09-3.55,1.46C82.26,58.34,80.86,58.53,79.33,58.53
		z M85.46,45.21c0.32-0.42,0.45-0.71,0.38-0.87c-0.07-0.16-0.43-0.15-1.08,0.03c-0.6,0.19-1.23,0.48-1.88,0.87
		c-0.65,0.4-1.28,0.85-1.88,1.36c-0.6,0.51-1.15,1.03-1.64,1.57c-0.49,0.53-0.87,1.01-1.15,1.43c0.37-0.14,0.89-0.36,1.57-0.66
		c0.67-0.3,1.36-0.66,2.06-1.08c0.7-0.42,1.38-0.86,2.06-1.32C84.57,46.07,85.09,45.63,85.46,45.21z"/>
	<path d="M113.9,47.79c0.51-0.14,0.84,0.02,0.98,0.49c0.14,0.47-0.05,0.79-0.56,0.98c-0.7,0.23-1.35,0.35-1.95,0.35
		c-0.98,0-1.89-0.14-2.75-0.42c-0.86-0.28-1.65-0.59-2.37-0.94c-0.72-0.35-1.35-0.67-1.88-0.98c-0.53-0.3-0.94-0.45-1.22-0.45
		c-1.07,0-2.05,0.26-2.93,0.77c-0.88,0.51-1.72,1.16-2.51,1.95c-1.49,1.49-2.92,2.99-4.29,4.5c-1.37,1.51-2.78,3.15-4.22,4.91
		c-0.09,0.09-0.25,0.21-0.49,0.35c-0.23,0.14-0.6,0-1.12-0.42c-0.09-0.09-0.07-0.3,0.07-0.63l5.92-10.39
		c0.23-0.56,0.43-0.87,0.59-0.94c0.16-0.07,0.34-0.06,0.52,0.03c0.14,0.05,0.31,0.13,0.52,0.24c0.21,0.12,0.2,0.36-0.03,0.73
		c-0.47,0.79-0.91,1.56-1.32,2.3c-0.42,0.74-0.84,1.51-1.25,2.3c0.6-0.6,1.29-1.32,2.06-2.16s1.59-1.64,2.47-2.4
		c0.88-0.77,1.8-1.4,2.75-1.92c0.95-0.51,1.89-0.77,2.82-0.77c0.7,0,1.36,0.15,1.99,0.45c0.63,0.3,1.27,0.63,1.92,0.98
		c0.65,0.35,1.33,0.66,2.06,0.94c0.72,0.28,1.52,0.42,2.4,0.42C112.74,48.07,113.34,47.98,113.9,47.79z"/>
	<path d="M122.33,58.46c-2.14,0.46-3.69,0.22-4.67-0.73c-0.98-0.95-1.21-2.54-0.7-4.77c0.42-1.44,1.09-3.14,2.02-5.09
		c0.93-1.95,2.01-3.97,3.24-6.06c1.23-2.09,2.59-4.15,4.08-6.17c1.49-2.02,2.96-3.83,4.43-5.44c1.46-1.6,2.87-2.9,4.22-3.9
		c1.35-1,2.55-1.5,3.62-1.5c0.6,0,1.08,0.2,1.43,0.59c0.35,0.4,0.52,0.85,0.52,1.36c0,0.79-0.44,1.88-1.32,3.28
		c-0.88,1.39-2,2.93-3.35,4.6c-1.35,1.67-2.87,3.4-4.57,5.19c-1.7,1.79-3.33,3.47-4.91,5.05c-1.58,1.58-3.04,2.97-4.39,4.18
		c-1.35,1.21-2.37,2.04-3.07,2.51c-0.09,0.14-0.15,0.28-0.17,0.42c-0.02,0.14-0.08,0.28-0.17,0.42c-0.51,1.25-0.69,2.22-0.52,2.89
		c0.16,0.67,0.52,1.14,1.08,1.39c0.56,0.26,1.25,0.36,2.09,0.31c0.84-0.05,1.68-0.17,2.54-0.38c0.86-0.21,1.67-0.46,2.44-0.77
		c0.77-0.3,1.36-0.57,1.78-0.8c1.02-0.56,1.99-1.1,2.89-1.64c0.91-0.53,1.96-1.36,3.17-2.47c0.23-0.23,0.45-0.35,0.66-0.35
		s0.37,0.08,0.49,0.24c0.12,0.16,0.15,0.36,0.1,0.59c-0.05,0.23-0.19,0.44-0.42,0.63c-0.56,0.46-1.31,1.01-2.27,1.64
		c-0.95,0.63-2,1.25-3.14,1.88c-1.14,0.63-2.33,1.21-3.59,1.74C124.63,57.84,123.45,58.22,122.33,58.46z M137.53,29.74
		c0.65-0.98,1.05-1.71,1.19-2.2c0.14-0.49,0.09-0.79-0.14-0.91c-0.23-0.12-0.64-0.04-1.22,0.24c-0.58,0.28-1.24,0.7-1.99,1.25
		c-2.7,2-5.26,4.76-7.7,8.29c-2.44,3.53-4.91,7.62-7.42,12.27c0.42-0.32,1.03-0.88,1.85-1.67c0.81-0.79,1.75-1.72,2.82-2.79
		c1.07-1.07,2.21-2.24,3.42-3.52c1.21-1.28,2.38-2.57,3.52-3.87c1.14-1.3,2.21-2.57,3.21-3.8
		C136.05,31.82,136.88,30.71,137.53,29.74z"/>
	<path d="M155.93,51.21c0.19-0.19,0.37-0.27,0.56-0.24c0.19,0.02,0.32,0.12,0.42,0.28c0.09,0.16,0.12,0.37,0.07,0.63
		c-0.05,0.26-0.19,0.48-0.42,0.66c-0.84,0.74-1.68,1.44-2.54,2.09c-0.86,0.65-1.75,1.16-2.68,1.53c-2.05,0.93-3.66,1-4.84,0.21
		c-1.19-0.79-1.45-2.44-0.8-4.95l-0.49-0.91c-0.6,0.51-1.37,1.16-2.3,1.95c-0.93,0.79-1.91,1.56-2.93,2.3
		c-1.02,0.74-2.05,1.37-3.07,1.88c-1.02,0.51-1.93,0.77-2.72,0.77c-0.56,0-1.02-0.19-1.39-0.56c-0.37-0.37-0.56-0.81-0.56-1.32
		c0-1.02,0.34-2.08,1.01-3.17c0.67-1.09,1.51-2.09,2.51-3c1-0.91,2.09-1.66,3.28-2.27c1.18-0.6,2.27-0.91,3.24-0.91
		c0.65,0,1.31,0.14,1.99,0.42c0.67,0.28,1.2,0.7,1.57,1.25l1.6-1.39c0.23-0.23,0.44-0.3,0.63-0.21c0.19,0.09,0.37,0.21,0.56,0.35
		c0.23,0.14,0.35,0.27,0.35,0.38c0,0.12,0,0.2,0,0.24c-0.23,0.56-0.52,1.31-0.87,2.27c-0.35,0.95-0.64,1.8-0.87,2.54
		c-0.56,1.63-0.42,2.66,0.42,3.1c0.84,0.44,1.93,0.29,3.28-0.45c0.98-0.51,1.86-1.09,2.65-1.74
		C154.35,52.3,155.14,51.72,155.93,51.21z M144.64,48.98c-0.09-0.32-0.29-0.58-0.59-0.77c-0.3-0.19-0.63-0.31-0.98-0.38
		c-0.35-0.07-0.71-0.08-1.08-0.04c-0.37,0.05-0.7,0.09-0.98,0.14c-1.3,0.33-2.49,0.94-3.55,1.85c-1.07,0.91-2,1.99-2.79,3.24
		c-0.51,0.79-0.79,1.49-0.84,2.09c-0.05,0.6,0.21,0.88,0.77,0.84c0.28,0,0.63-0.09,1.05-0.28c0.42-0.19,0.88-0.42,1.39-0.7
		c1.35-0.79,2.64-1.73,3.87-2.82C142.14,51.06,143.38,50,144.64,48.98z"/>
	<path d="M201.37,36.15c0.42,0,0.73,0.08,0.94,0.24c0.21,0.16,0.31,0.35,0.31,0.56c0,0.21-0.1,0.4-0.31,0.56
		c-0.21,0.16-0.52,0.24-0.94,0.24c-2.28-0.14-4.54-0.25-6.8-0.35c-2.25-0.09-4.54-0.14-6.87-0.14c-1.02,0-2.06,0.01-3.1,0.03
		c-1.05,0.02-2.1,0.06-3.17,0.1c-2.09,4.37-4.04,8.76-5.85,13.17c-1.81,4.42-3.53,8.88-5.16,13.38c-0.6,1.58-1.14,3.23-1.6,4.95
		c-0.46,1.72-1.05,3.35-1.74,4.88c-0.14,0.46-0.33,0.75-0.56,0.87c-0.23,0.12-0.45,0.13-0.66,0.03c-0.21-0.09-0.36-0.26-0.45-0.49
		c-0.09-0.23-0.07-0.49,0.07-0.77c2.14-6.18,4.38-12.23,6.73-18.16c2.35-5.92,4.87-11.86,7.56-17.81l-2.86,0.14
		c-2.93,3.67-5.81,7.34-8.64,11.01c-2.83,3.67-5.74,7.32-8.71,10.94c0.09,0.98-0.06,2.17-0.45,3.59c-0.4,1.42-0.96,2.78-1.68,4.08
		c-0.73,1.3-1.61,2.42-2.65,3.35c-1.04,0.93-2.19,1.39-3.44,1.39c-0.37,0-0.63-0.15-0.77-0.45c-0.14-0.3-0.16-0.62-0.07-0.94
		c0.23-1.02,0.64-2.04,1.22-3.07c0.58-1.02,1.24-2.03,1.99-3.03c0.74-1,1.49-1.95,2.24-2.86c0.75-0.91,1.44-1.75,2.08-2.54
		c0.05-0.19-0.05-0.63-0.28-1.32c-0.23-0.7-0.48-1.49-0.75-2.37c-0.27-0.88-0.51-1.75-0.73-2.61c-0.22-0.86-0.33-1.54-0.33-2.06
		c0-0.74,0.11-1.46,0.33-2.16c0.22-0.7,0.55-1.32,0.98-1.88c0.43-0.56,0.94-1,1.55-1.32c0.6-0.32,1.3-0.49,2.09-0.49
		c1.16,0,2.18,0.37,3.07,1.12c0.23,0.19,0.34,0.38,0.31,0.59c-0.02,0.21-0.12,0.38-0.28,0.52c-0.16,0.14-0.36,0.23-0.59,0.28
		c-0.23,0.05-0.42,0-0.56-0.14c-0.51-0.51-1.08-0.77-1.71-0.77c-0.63,0-1.21,0.17-1.74,0.52c-0.53,0.35-0.99,0.81-1.36,1.39
		c-0.37,0.58-0.56,1.17-0.56,1.78c0,1.35,0.21,2.57,0.63,3.66c0.42,1.09,0.81,2.29,1.19,3.59l15.54-19.59
		c-3.11,0.33-6.18,0.66-9.2,1.01c-3.02,0.35-6.07,0.73-9.15,1.15c-0.49,0.09-0.84,0.06-1.02-0.1c-0.19-0.16-0.24-0.35-0.17-0.56
		c0.07-0.21,0.21-0.41,0.42-0.59c0.21-0.19,0.45-0.28,0.71-0.28c3.27-0.37,6.54-0.79,9.81-1.25c3.28-0.46,6.59-0.81,9.93-1.05
		c1.81-2.37,3.66-4.72,5.54-7.04c1.88-2.32,3.75-4.67,5.61-7.04c0.09-0.09,0.25-0.24,0.49-0.45c0.23-0.21,0.53-0.15,0.91,0.17
		c0.09,0.09,0.16,0.23,0.21,0.42c0.05,0.19,0,0.37-0.14,0.56l-6.62,13.1c3.25-0.05,6.46-0.07,9.62-0.07
		C194.92,35.8,198.12,35.92,201.37,36.15z M158.09,61.52c-1.07,1.35-2.15,2.7-3.24,4.04c-1.09,1.35-1.99,2.81-2.68,4.39
		c0.74-0.42,1.45-0.92,2.13-1.5c0.67-0.58,1.29-1.23,1.85-1.95c0.56-0.72,1.01-1.5,1.36-2.33c0.35-0.84,0.55-1.7,0.59-2.58V61.52z
		 M180.53,35.94c0.51-1.21,1.06-2.42,1.64-3.62c0.58-1.21,1.17-2.37,1.78-3.49c-0.93,1.16-1.87,2.33-2.82,3.52
		c-0.95,1.19-1.89,2.4-2.82,3.66L180.53,35.94z"/>
	<path d="M185.06,57.9c-0.51,0.19-1.1,0.33-1.78,0.42c-0.67,0.09-1.3,0.07-1.88-0.07c-0.58-0.14-1.08-0.42-1.5-0.84
		c-0.42-0.42-0.63-1.02-0.63-1.81c0-0.98,0.21-2.01,0.63-3.1c0.42-1.09,0.93-2.1,1.53-3.03c0.14-0.19,0.31-0.29,0.52-0.31
		c0.21-0.02,0.39,0,0.56,0.07c0.16,0.07,0.29,0.2,0.38,0.38c0.09,0.19,0.07,0.37-0.07,0.56c-0.51,0.79-0.98,1.66-1.39,2.61
		c-0.42,0.95-0.63,1.75-0.63,2.4c0,0.6,0.13,1.03,0.38,1.29c0.25,0.26,0.58,0.41,0.98,0.45c0.39,0.05,0.81,0.01,1.25-0.1
		c0.44-0.12,0.87-0.24,1.29-0.38c1.49-0.56,2.97-1.38,4.46-2.47c1.49-1.09,2.6-2.13,3.35-3.1c0.42-0.09,0.67,0.04,0.77,0.38
		c0.09,0.35,0.12,0.57,0.07,0.66c-0.28,0.51-0.72,1.06-1.32,1.64c-0.6,0.58-1.29,1.15-2.06,1.71c-0.77,0.56-1.58,1.07-2.44,1.53
		C186.68,57.25,185.85,57.62,185.06,57.9z M184.99,46.19c-0.33,0.65-0.71,0.91-1.15,0.77c-0.44-0.14-0.55-0.6-0.31-1.39
		c0.19-0.46,0.38-0.92,0.59-1.36c0.21-0.44,0.45-0.85,0.73-1.22c0.19-0.28,0.39-0.43,0.63-0.45c0.23-0.02,0.43,0.02,0.59,0.14
		c0.16,0.12,0.28,0.27,0.35,0.45c0.07,0.19,0.03,0.35-0.1,0.49c-0.28,0.42-0.51,0.84-0.7,1.25
		C185.44,45.28,185.23,45.72,184.99,46.19z"/>
	<path d="M191.75,56.5c-0.46,0.46-0.88,0.58-1.25,0.35c-0.37-0.23-0.44-0.7-0.21-1.39c0.84-1.77,1.67-3.53,2.51-5.3
		c0.84-1.77,1.74-3.49,2.72-5.16c0.09-0.19,0.24-0.3,0.45-0.35c0.21-0.05,0.39-0.03,0.56,0.04c0.16,0.07,0.3,0.2,0.42,0.38
		c0.12,0.19,0.13,0.4,0.03,0.63c-0.7,1.25-1.39,2.51-2.09,3.76c-0.7,1.25-1.35,2.56-1.95,3.9c0.6-0.6,1.3-1.31,2.09-2.13
		c0.79-0.81,1.61-1.6,2.47-2.37c0.86-0.77,1.73-1.44,2.61-2.02c0.88-0.58,1.74-0.96,2.58-1.15c0.93-0.19,1.61,0.13,2.06,0.94
		c0.44,0.81,0.8,1.75,1.08,2.82c0.28,1.07,0.56,2.07,0.84,3c0.28,0.93,0.74,1.39,1.39,1.39c0.42,0,0.98-0.08,1.67-0.24
		c0.7-0.16,1.43-0.38,2.2-0.66s1.51-0.58,2.23-0.91c0.72-0.32,1.33-0.65,1.85-0.98c0.23-0.14,0.45-0.17,0.66-0.1
		c0.21,0.07,0.35,0.19,0.42,0.35c0.07,0.16,0.08,0.36,0.03,0.59c-0.05,0.23-0.21,0.42-0.49,0.56c-0.51,0.33-1.15,0.66-1.92,1.01
		s-1.56,0.66-2.37,0.94c-0.81,0.28-1.58,0.51-2.3,0.7c-0.72,0.19-1.31,0.28-1.78,0.28c-1.12,0-1.93-0.42-2.44-1.25
		c-0.51-0.84-0.9-1.77-1.15-2.79c-0.26-1.02-0.48-1.95-0.66-2.79c-0.19-0.84-0.56-1.25-1.12-1.25c-0.51,0-1.25,0.37-2.23,1.12
		c-0.98,0.74-2.02,1.62-3.14,2.61c-1.12,1-2.21,2.01-3.28,3.03C193.19,55.09,192.36,55.9,191.75,56.5z"/>
	<path d="M200.47,84.18c-4.41,0-8.07-0.31-10.98-0.94c-2.9-0.63-4.71-1.58-5.4-2.86c-0.7-1.28-0.12-2.88,1.74-4.78
		c1.86-1.91,5.37-4.17,10.53-6.77c3.07-1.54,6.31-3.04,9.72-4.5c3.42-1.47,6.68-2.82,9.79-4.05c3.11-1.23,5.89-2.3,8.33-3.21
		c2.44-0.91,4.22-1.57,5.33-1.99c-0.23-1.07-0.51-2.01-0.84-2.83c-0.33-0.81-0.72-1.78-1.19-2.9c-0.42,0.65-0.96,1.34-1.64,2.06
		c-0.67,0.72-1.39,1.44-2.16,2.17c-0.77,0.72-1.57,1.4-2.4,2.03c-0.84,0.63-1.67,1.13-2.51,1.5c-0.65,0.28-1.27,0.41-1.85,0.38
		c-0.58-0.02-1.06-0.19-1.43-0.49c-0.37-0.3-0.63-0.75-0.77-1.33s-0.09-1.27,0.14-2.06c0.28-0.98,0.72-1.89,1.32-2.72
		c0.6-0.84,1.32-1.57,2.16-2.2c0.84-0.63,1.74-1.13,2.72-1.5c0.98-0.37,1.97-0.56,3-0.56c1.12,0,2.14,0.23,3.07,0.7
		c0.19-0.33,0.51-0.5,0.98-0.52c0.46-0.02,0.7,0.22,0.7,0.73c0,0.33,0.09,0.72,0.28,1.19c0.09,0.23,0.23,0.63,0.42,1.19
		s0.38,1.15,0.59,1.78s0.39,1.21,0.56,1.75c0.16,0.54,0.27,0.9,0.31,1.08l10.04-3.56c0.6-0.09,0.93,0.07,0.98,0.49
		c0.05,0.42-0.16,0.75-0.63,0.98c-1.63,0.56-3.31,1.16-5.05,1.82c-1.74,0.65-3.43,1.26-5.05,1.82c0.37,1.96,0.71,4.05,1.01,6.29
		c0.3,2.23,0.45,4.35,0.45,6.35c0,2.28-0.56,4.26-1.67,5.94c-1.12,1.67-2.59,3.08-4.43,4.22c-1.84,1.14-3.92,2.06-6.24,2.76
		c-2.32,0.7-4.68,1.24-7.07,1.64c-2.39,0.4-4.72,0.65-6.97,0.77C204.1,84.12,202.14,84.18,200.47,84.18z M197.26,70.17
		c-4.92,2.46-8.22,4.5-9.9,6.1c-1.67,1.6-2.15,2.87-1.43,3.8c0.72,0.93,2.43,1.59,5.12,1.99c2.7,0.39,5.97,0.59,9.83,0.59
		c1.53,0,3.36-0.06,5.47-0.17c2.12-0.12,4.3-0.34,6.55-0.66c2.25-0.33,4.47-0.8,6.66-1.43c2.18-0.63,4.13-1.48,5.85-2.54
		c1.72-1.07,3.11-2.36,4.18-3.87c1.07-1.51,1.6-3.33,1.6-5.47c0-1.81-0.12-3.8-0.35-5.96c-0.23-2.16-0.58-4.12-1.04-5.89
		c-0.93,0.33-2.59,0.93-4.98,1.81c-2.39,0.88-5.12,1.94-8.19,3.17c-3.07,1.23-6.31,2.59-9.72,4.08
		C203.5,67.19,200.28,68.68,197.26,70.17z M216.36,53.85c-0.23,0.65-0.2,1.22,0.1,1.71c0.3,0.49,0.85,0.55,1.64,0.17
		c0.74-0.28,1.5-0.72,2.26-1.32c0.77-0.6,1.52-1.25,2.27-1.95c0.74-0.7,1.42-1.39,2.02-2.09c0.6-0.7,1.12-1.28,1.53-1.74
		c-0.37-0.09-0.74-0.2-1.12-0.31c-0.37-0.12-0.77-0.17-1.18-0.17c-0.7,0-1.43,0.16-2.2,0.49c-0.77,0.33-1.51,0.76-2.23,1.29
		c-0.72,0.53-1.36,1.14-1.92,1.81C216.99,52.4,216.59,53.11,216.36,53.85z"/>
	<path d="M248.98,71.35c-0.14,0.28-0.28,0.43-0.42,0.45c-0.14,0.02-0.26,0.04-0.35,0.04c-0.51-0.09-0.77-0.24-0.77-0.45
		s0.02-0.36,0.07-0.45c0.37-0.88,0.75-1.87,1.15-2.96c0.39-1.09,0.78-2.18,1.15-3.28c0.37-1.09,0.75-2.16,1.15-3.21
		c0.39-1.05,0.78-2.01,1.15-2.89c-1.72,0.28-3.45,0.48-5.19,0.59c-1.74,0.12-3.47,0.2-5.19,0.24c-0.74,0-1.12-0.25-1.12-0.77
		c0-0.51,0.4-0.77,1.19-0.77c1.86-0.05,3.71-0.15,5.54-0.31c1.83-0.16,3.66-0.38,5.47-0.66c2.32-5.53,4.67-10.99,7.04-16.38
		c2.37-5.39,4.86-10.76,7.46-16.1c-0.98-0.05-2.36,0.08-4.15,0.38c-1.79,0.3-3.67,0.76-5.65,1.36c-1.98,0.6-3.89,1.32-5.75,2.16
		s-3.35,1.77-4.46,2.79c-0.65,0.6-1.17,1.35-1.57,2.23c-0.39,0.88-0.59,1.75-0.59,2.61c0,0.86,0.23,1.64,0.7,2.33
		c0.46,0.7,1.25,1.19,2.37,1.46c0.51,0.14,0.84,0.31,0.98,0.52c0.14,0.21,0.15,0.4,0.04,0.56c-0.12,0.16-0.28,0.3-0.49,0.42
		c-0.21,0.12-0.41,0.17-0.59,0.17c-1.35-0.09-2.45-0.69-3.31-1.78c-0.86-1.09-1.29-2.31-1.29-3.66c0-1.63,0.48-3.08,1.43-4.36
		c0.95-1.28,2.18-2.42,3.69-3.42c1.51-1,3.23-1.83,5.16-2.51c1.93-0.67,3.86-1.23,5.79-1.67c1.93-0.44,3.77-0.77,5.54-0.98
		c1.77-0.21,3.25-0.31,4.46-0.31c2.04,0,4.3,0.2,6.76,0.59c2.46,0.4,4.77,1.1,6.93,2.13c2.16,1.02,3.97,2.38,5.44,4.08
		c1.46,1.7,2.2,3.85,2.2,6.45c0,1.63-0.42,3.17-1.25,4.64c-0.84,1.46-1.93,2.83-3.28,4.11c-1.35,1.28-2.89,2.46-4.64,3.55
		c-1.74,1.09-3.51,2.07-5.3,2.93c-1.79,0.86-3.53,1.62-5.23,2.27c-1.7,0.65-3.2,1.18-4.5,1.6c-2.09,0.7-4.23,1.24-6.41,1.64
		c-2.18,0.4-4.32,0.92-6.41,1.57L248.98,71.35z M268.63,24.3c0.19,0.37,0.2,0.71,0.04,1.01c-0.16,0.3-0.29,0.52-0.38,0.66
		c-2.18,5.16-4.51,10.23-6.97,15.23c-2.46,5-4.72,10.12-6.76,15.37c2.09-0.28,4.53-0.79,7.32-1.53c2.79-0.74,5.63-1.68,8.54-2.82
		c2.9-1.14,5.69-2.45,8.36-3.94c2.67-1.49,4.94-3.14,6.8-4.95c0.98-0.93,1.78-1.97,2.41-3.14c0.63-1.16,1-2.36,1.12-3.59
		c0.12-1.23-0.05-2.46-0.49-3.69c-0.44-1.23-1.2-2.38-2.27-3.45c-1.12-1.12-2.38-2.01-3.8-2.68c-1.42-0.67-2.89-1.2-4.43-1.57
		c-1.53-0.37-3.1-0.62-4.71-0.73C271.81,24.36,270.21,24.3,268.63,24.3z"/>
	<path d="M310.25,51.21c0.19-0.19,0.37-0.27,0.56-0.24c0.19,0.02,0.33,0.12,0.42,0.28c0.09,0.16,0.12,0.37,0.07,0.63
		c-0.05,0.26-0.19,0.48-0.42,0.66c-0.84,0.74-1.69,1.44-2.54,2.09c-0.86,0.65-1.75,1.16-2.68,1.53c-2.04,0.93-3.66,1-4.84,0.21
		c-1.18-0.79-1.45-2.44-0.8-4.95l-0.49-0.91c-0.6,0.51-1.37,1.16-2.3,1.95c-0.93,0.79-1.91,1.56-2.93,2.3
		c-1.02,0.74-2.04,1.37-3.07,1.88c-1.02,0.51-1.93,0.77-2.72,0.77c-0.56,0-1.02-0.19-1.39-0.56c-0.37-0.37-0.56-0.81-0.56-1.32
		c0-1.02,0.34-2.08,1.01-3.17c0.67-1.09,1.51-2.09,2.51-3c1-0.91,2.09-1.66,3.28-2.27c1.18-0.6,2.26-0.91,3.24-0.91
		c0.65,0,1.31,0.14,1.99,0.42c0.67,0.28,1.2,0.7,1.57,1.25l1.6-1.39c0.23-0.23,0.44-0.3,0.63-0.21c0.18,0.09,0.37,0.21,0.56,0.35
		c0.23,0.14,0.35,0.27,0.35,0.38c0,0.12,0,0.2,0,0.24c-0.23,0.56-0.52,1.31-0.87,2.27c-0.35,0.95-0.64,1.8-0.87,2.54
		c-0.56,1.63-0.42,2.66,0.42,3.1c0.84,0.44,1.93,0.29,3.28-0.45c0.98-0.51,1.86-1.09,2.65-1.74
		C308.67,52.3,309.46,51.72,310.25,51.21z M298.95,48.98c-0.09-0.32-0.29-0.58-0.59-0.77c-0.3-0.19-0.63-0.31-0.98-0.38
		c-0.35-0.07-0.71-0.08-1.08-0.04c-0.37,0.05-0.7,0.09-0.98,0.14c-1.3,0.33-2.49,0.94-3.55,1.85c-1.07,0.91-2,1.99-2.79,3.24
		c-0.51,0.79-0.79,1.49-0.84,2.09c-0.04,0.6,0.21,0.88,0.77,0.84c0.28,0,0.63-0.09,1.05-0.28c0.42-0.19,0.88-0.42,1.39-0.7
		c1.35-0.79,2.64-1.73,3.87-2.82C296.46,51.06,297.7,50,298.95,48.98z"/>
	<path d="M329.48,51c0.37,0,0.57,0.08,0.59,0.23c0.02,0.16,0.04,0.32,0.04,0.5c0,0.49-0.3,0.73-0.91,0.73
		c-1.12-0.05-2.24-0.09-3.38-0.14c-1.14-0.05-2.29-0.09-3.45-0.14c-0.56,0.93-1.23,1.85-2.02,2.75s-1.66,1.7-2.61,2.37
		c-0.95,0.67-1.98,1.16-3.07,1.46c-1.09,0.3-2.22,0.31-3.38,0.04c-1.49,2.51-2.89,5.05-4.22,7.63c-1.32,2.58-2.66,5.17-4.01,7.77
		c-0.14,0.46-0.34,0.75-0.59,0.87c-0.25,0.12-0.49,0.14-0.7,0.07c-0.21-0.07-0.35-0.23-0.42-0.49c-0.07-0.26-0.04-0.55,0.1-0.87
		c1.49-3.07,2.81-6.19,3.97-9.38c1.16-3.18,2.42-6.35,3.76-9.51c0-0.93,0.14-1.78,0.42-2.56c0.28-0.78,0.84-1.39,1.67-1.84
		c0.51-1.02,1.03-2.04,1.57-3.06c0.53-1.02,1.06-2.02,1.57-3c0.05-0.14,0.16-0.21,0.35-0.21s0.37,0.05,0.56,0.14
		c0.19,0.09,0.33,0.21,0.42,0.35c0.09,0.14,0.09,0.28,0,0.42c-0.51,0.88-0.99,1.77-1.43,2.65c-0.44,0.88-0.8,1.72-1.08,2.51
		c0.32,0,0.62,0,0.87,0c0.25,0,0.55,0.02,0.87,0.07c0.37-0.47,0.88-1.09,1.53-1.87c0.65-0.77,1.35-1.54,2.09-2.29
		c0.74-0.75,1.5-1.4,2.27-1.94c0.77-0.54,1.45-0.81,2.06-0.81c0.65,0,1.14,0.22,1.46,0.67c0.32,0.45,0.49,0.95,0.49,1.51
		c0,0.8-0.17,1.68-0.52,2.64c-0.35,0.96-0.71,1.77-1.08,2.43c1.02,0.09,2.04,0.15,3.07,0.17C327.37,50.92,328.41,50.95,329.48,51z
		 M309.83,57.27c-0.37,0.84-0.74,1.7-1.12,2.58c-0.37,0.88-0.77,1.74-1.19,2.58l2.51-4.6L309.83,57.27z M312.34,51.9l-1.6,3.28
		l0.28,1.05c0.51-0.7,0.99-1.44,1.43-2.23c0.44-0.79,0.94-1.53,1.5-2.23L312.34,51.9z M320.63,52.11c-1.63-0.14-3.25-0.21-4.88-0.21
		c-0.65,0.88-1.28,1.79-1.88,2.72c-0.6,0.93-1.23,1.86-1.88,2.79c1.91,0.14,3.57-0.31,4.98-1.36
		C318.39,55.01,319.61,53.69,320.63,52.11z M323.14,47.16c0.46-1.39,0.41-2.1-0.17-2.13c-0.58-0.02-1.36,0.38-2.33,1.22
		c-0.65,0.56-1.27,1.23-1.85,2.02c-0.58,0.79-1.2,1.51-1.85,2.16c0.51,0,1.03,0.03,1.57,0.1c0.53,0.07,1.06,0.1,1.57,0.1h1.46
		c0.23-0.32,0.5-0.82,0.8-1.5C322.64,48.48,322.91,47.81,323.14,47.16z"/>
	<path d="M333.46,58.53c-0.93,0-1.74-0.15-2.44-0.45c-0.7-0.3-1.23-0.75-1.6-1.36c-0.37-0.6-0.57-1.32-0.59-2.16
		c-0.02-0.84,0.2-1.79,0.66-2.86c-0.23-0.23-0.28-0.55-0.14-0.94c0.14-0.39,0.37-0.69,0.7-0.87l0.42-0.14
		c0.88-1.49,2.01-2.83,3.38-4.04c1.37-1.21,2.89-2.09,4.57-2.65c0.56-0.19,1.09-0.25,1.6-0.21c0.51,0.05,0.91,0.2,1.18,0.45
		c0.28,0.26,0.42,0.59,0.42,1.01c0,0.42-0.21,0.91-0.63,1.46c-0.51,0.7-1.17,1.35-1.99,1.95c-0.81,0.6-1.7,1.16-2.65,1.67
		c-0.95,0.51-1.88,0.95-2.79,1.32c-0.91,0.37-1.71,0.65-2.41,0.84c-0.28,0.7-0.5,1.37-0.66,2.02c-0.16,0.65-0.17,1.23-0.04,1.74
		c0.14,0.51,0.46,0.92,0.98,1.22c0.51,0.3,1.25,0.45,2.23,0.45c1.44,0,2.89-0.28,4.36-0.84s2.82-1.2,4.08-1.92
		c1.25-0.72,2.35-1.42,3.28-2.09c0.93-0.67,1.53-1.13,1.81-1.36c0.46-0.19,0.78-0.12,0.94,0.21c0.16,0.33,0.06,0.67-0.31,1.05
		c-1.16,0.84-2.28,1.64-3.35,2.4c-1.07,0.77-2.16,1.45-3.28,2.06c-1.12,0.6-2.3,1.09-3.55,1.46
		C336.38,58.34,334.99,58.53,333.46,58.53z M339.59,45.21c0.32-0.42,0.45-0.71,0.38-0.87c-0.07-0.16-0.43-0.15-1.08,0.03
		c-0.6,0.19-1.23,0.48-1.88,0.87c-0.65,0.4-1.28,0.85-1.88,1.36c-0.6,0.51-1.15,1.03-1.64,1.57c-0.49,0.53-0.87,1.01-1.15,1.43
		c0.37-0.14,0.89-0.36,1.57-0.66c0.67-0.3,1.36-0.66,2.06-1.08c0.7-0.42,1.38-0.86,2.06-1.32
		C338.69,46.07,339.22,45.63,339.59,45.21z"/>
	<path d="M368.03,47.79c0.51-0.14,0.84,0.02,0.98,0.49c0.14,0.47-0.05,0.79-0.56,0.98c-0.7,0.23-1.35,0.35-1.95,0.35
		c-0.98,0-1.89-0.14-2.75-0.42c-0.86-0.28-1.65-0.59-2.37-0.94c-0.72-0.35-1.35-0.67-1.88-0.98c-0.54-0.3-0.94-0.45-1.22-0.45
		c-1.07,0-2.05,0.26-2.93,0.77c-0.88,0.51-1.72,1.16-2.51,1.95c-1.49,1.49-2.92,2.99-4.29,4.5c-1.37,1.51-2.78,3.15-4.22,4.91
		c-0.09,0.09-0.25,0.21-0.49,0.35c-0.23,0.14-0.6,0-1.12-0.42c-0.09-0.09-0.07-0.3,0.07-0.63l5.92-10.39
		c0.23-0.56,0.43-0.87,0.59-0.94c0.16-0.07,0.34-0.06,0.52,0.03c0.14,0.05,0.31,0.13,0.52,0.24c0.21,0.12,0.2,0.36-0.04,0.73
		c-0.46,0.79-0.91,1.56-1.32,2.3c-0.42,0.74-0.84,1.51-1.25,2.3c0.6-0.6,1.29-1.32,2.06-2.16c0.77-0.84,1.59-1.64,2.47-2.4
		s1.8-1.4,2.75-1.92c0.95-0.51,1.89-0.77,2.82-0.77c0.7,0,1.36,0.15,1.99,0.45c0.63,0.3,1.26,0.63,1.92,0.98
		c0.65,0.35,1.34,0.66,2.06,0.94c0.72,0.28,1.52,0.42,2.4,0.42C366.87,48.07,367.47,47.98,368.03,47.79z"/>
</g>
</svg>
